<?xml version="1.0" encoding="utf-8"?>
<!-- Generator: Adobe Illustrator 19.1.0, SVG Export Plug-In . SVG Version: 6.00 Build 0)  -->
<svg version="1.1" id="Layer_1" xmlns="http://www.w3.org/2000/svg" xmlns:xlink="http://www.w3.org/1999/xlink" x="0px" y="0px"
	 viewBox="-490.5 660.7 397.6 94" style="enable-background:new -490.5 660.7 397.6 94;" xml:space="preserve">
<style type="text/css">
	.st0{clip-path:url(#SVGID_2_);fill:#231F20;}
	.st1{clip-path:url(#SVGID_4_);fill:#231F20;}
	.st2{clip-path:url(#SVGID_6_);fill:#231F20;}
	.st3{clip-path:url(#SVGID_8_);fill:#231F20;}
	.st4{clip-path:url(#SVGID_10_);fill:#231F20;}
	.st5{clip-path:url(#SVGID_12_);fill:#231F20;}
	.st6{clip-path:url(#SVGID_14_);fill:#231F20;}
	.st7{clip-path:url(#SVGID_16_);fill:#231F20;}
	.st8{clip-path:url(#SVGID_18_);fill:#231F20;}
	.st9{clip-path:url(#SVGID_20_);fill:#231F20;}
	.st10{clip-path:url(#SVGID_22_);fill:#231F20;}
	.st11{clip-path:url(#SVGID_24_);fill:#231F20;}
	.st12{clip-path:url(#SVGID_26_);fill:#231F20;}
	.st13{clip-path:url(#SVGID_28_);fill:#231F20;}
	.st14{clip-path:url(#SVGID_30_);fill:#231F20;}
	.st15{clip-path:url(#SVGID_32_);fill:#231F20;}
	.st16{clip-path:url(#SVGID_34_);fill:#231F20;}
	.st17{clip-path:url(#SVGID_36_);fill:#231F20;}
	.st18{clip-path:url(#SVGID_38_);fill:#231F20;}
	.st19{clip-path:url(#SVGID_40_);fill:#231F20;}
	.st20{clip-path:url(#SVGID_42_);fill:#231F20;}
	.st21{clip-path:url(#SVGID_44_);fill:#231F20;}
	.st22{clip-path:url(#SVGID_46_);fill:#231F20;}
	.st23{fill:#231F20;}
	.st24{clip-path:url(#SVGID_48_);fill:#231F20;}
	.st25{clip-path:url(#SVGID_50_);fill:#231F20;}
</style>
<g>
	<g>
		<defs>
			<rect id="SVGID_1_" x="-493.4" y="654.2" width="417.7" height="125.6"/>
		</defs>
		<clipPath id="SVGID_2_">
			<use xlink:href="#SVGID_1_"  style="overflow:visible;"/>
		</clipPath>
		<path class="st0" d="M-394.5,712.7h5.2l14.7,16.8c0.4,0.5,0.5,0.7,1.1,1.3v-18.1h4.6v29.9h-1.4l-19.5-22.1v21.8h-4.7
			C-394.5,742.2-394.5,712.7-394.5,712.7z"/>
	</g>
	<g>
		<defs>
			<rect id="SVGID_3_" x="-493.4" y="654.2" width="417.7" height="125.6"/>
		</defs>
		<clipPath id="SVGID_4_">
			<use xlink:href="#SVGID_3_"  style="overflow:visible;"/>
		</clipPath>
		<path class="st1" d="M-336.7,727.4c0,6.7-3.2,15.8-14.5,15.8c-10.8,0-14.2-8.5-14.2-15.4c0-7.4,3.4-16,14.2-16
			C-339.6,711.8-336.7,720.9-336.7,727.4 M-359,726.9c0,2.3,0,12.3,7.9,12.3c8.1,0,8.1-9.6,8.1-11.6c0-8.8-3.8-11.9-8.1-11.9
			C-356.3,715.7-359,720.3-359,726.9"/>
	</g>
	<g>
		<defs>
			<rect id="SVGID_5_" x="-493.4" y="654.2" width="417.7" height="125.6"/>
		</defs>
		<clipPath id="SVGID_6_">
			<use xlink:href="#SVGID_5_"  style="overflow:visible;"/>
		</clipPath>
		<path class="st2" d="M-334.2,712.7h10.4c3.1,0,5.1,0.4,6.8,1.5c2.4,1.6,3.1,4.3,3.1,6.4c0,1.1-0.2,2.8-1.3,4.5
			c-1.2,1.8-2.6,2.6-3.8,3.2l8.1,14h-6.6l-7.4-12.7c-1.4,0-1.8,0-3.4-0.3v13.1h-5.9V712.7L-334.2,712.7z M-328.3,727.1
			c1.6,0,3.3,0,4.9-0.7c1.5-0.6,3.5-2.1,3.5-4.9c0-0.7-0.1-2.8-2.2-4c-1.2-0.7-2.6-0.8-3.7-0.8c-0.8,0-1.7,0-2.4,0L-328.3,727.1
			L-328.3,727.1z"/>
	</g>
	<g>
		<defs>
			<rect id="SVGID_7_" x="-493.4" y="654.2" width="417.7" height="125.6"/>
		</defs>
		<clipPath id="SVGID_8_">
			<use xlink:href="#SVGID_7_"  style="overflow:visible;"/>
		</clipPath>
		<polygon class="st3" points="-312.7,712.7 -289.5,712.7 -289.5,716.7 -298.1,716.7 -298.1,742.2 -304,742.2 -304,716.7 
			-312.7,716.7 		"/>
	</g>
	<g>
		<defs>
			<rect id="SVGID_9_" x="-493.4" y="654.2" width="417.7" height="125.6"/>
		</defs>
		<clipPath id="SVGID_10_">
			<use xlink:href="#SVGID_9_"  style="overflow:visible;"/>
		</clipPath>
		<polygon class="st4" points="-287.7,712.7 -281.8,712.7 -281.8,724.8 -269.5,724.8 -269.5,712.7 -263.7,712.7 -263.7,742.2 
			-269.5,742.2 -269.5,728.8 -281.8,728.8 -281.8,742.2 -287.7,742.2 		"/>
	</g>
	<g>
		<defs>
			<rect id="SVGID_11_" x="-493.4" y="654.2" width="417.7" height="125.6"/>
		</defs>
		<clipPath id="SVGID_12_">
			<use xlink:href="#SVGID_11_"  style="overflow:visible;"/>
		</clipPath>
		<path class="st5" d="M-248.3,712.7h2l13.4,29.6h-6.3l-2.9-6.5h-12.1l-2.9,6.5h-5.1L-248.3,712.7z M-248.2,722.2l-4.2,9.6h8.6
			L-248.2,722.2z"/>
	</g>
	<g>
		<defs>
			<rect id="SVGID_13_" x="-493.4" y="654.2" width="417.7" height="125.6"/>
		</defs>
		<clipPath id="SVGID_14_">
			<use xlink:href="#SVGID_13_"  style="overflow:visible;"/>
		</clipPath>
		<path class="st6" d="M-226.9,712.7h3.3l7.7,17.2c0.9,2.1,1,2.5,1.7,4.5c0.5-1.3,0.7-1.8,1.2-3.1l8-18.6h3.4l4.6,29.6h-5.9
			l-2.1-14.9c-0.2-1.8-0.2-2.3-0.4-3.7c-0.4,1.8-0.6,2.2-1.3,3.9l-6.4,14.7h-3.1l-6.9-15.3c-0.6-1.5-0.7-1.8-1-3.3
			c0,1.5-0.1,1.9-0.3,3.6l-2.2,15h-5L-226.9,712.7z"/>
	</g>
	<g>
		<defs>
			<rect id="SVGID_15_" x="-493.4" y="654.2" width="417.7" height="125.6"/>
		</defs>
		<clipPath id="SVGID_16_">
			<use xlink:href="#SVGID_15_"  style="overflow:visible;"/>
		</clipPath>
		<path class="st7" d="M-194.3,712.6h11.1c7.7,0,9.5,4.7,9.5,7.8c0,5.7-5.2,9-11.5,9c-1.2,0-2.2-0.2-3.2-0.3v13.2h-5.9L-194.3,712.6
			L-194.3,712.6z M-188.4,727.1c1.7,0,3.3,0,5.2-0.9c2.2-1,3.3-2.6,3.3-4.6c0-2.2-1.1-3.9-3.2-4.6c-1.4-0.5-2.9-0.5-5.3-0.4V727.1z"
			/>
	</g>
	<g>
		<defs>
			<rect id="SVGID_17_" x="-493.4" y="654.2" width="417.7" height="125.6"/>
		</defs>
		<clipPath id="SVGID_18_">
			<use xlink:href="#SVGID_17_"  style="overflow:visible;"/>
		</clipPath>
		<polygon class="st8" points="-173.3,712.7 -150.2,712.7 -150.2,716.7 -158.8,716.7 -158.8,742.2 -164.7,742.2 -164.7,716.7 
			-173.3,716.7 		"/>
	</g>
	<g>
		<defs>
			<rect id="SVGID_19_" x="-493.4" y="654.2" width="417.7" height="125.6"/>
		</defs>
		<clipPath id="SVGID_20_">
			<use xlink:href="#SVGID_19_"  style="overflow:visible;"/>
		</clipPath>
		<path class="st9" d="M-122.1,727.4c0,6.7-3.2,15.8-14.5,15.8c-10.8,0-14.2-8.5-14.2-15.4c0-7.4,3.4-16,14.2-16
			C-125,711.8-122.1,720.9-122.1,727.4 M-144.4,726.9c0,2.3,0,12.3,7.9,12.3c8.1,0,8.1-9.6,8.1-11.6c0-8.8-3.8-11.9-8.1-11.9
			C-141.7,715.7-144.4,720.3-144.4,726.9"/>
	</g>
	<g>
		<defs>
			<rect id="SVGID_21_" x="-493.4" y="654.2" width="417.7" height="125.6"/>
		</defs>
		<clipPath id="SVGID_22_">
			<use xlink:href="#SVGID_21_"  style="overflow:visible;"/>
		</clipPath>
		<path class="st10" d="M-118.7,712.7h5.2l14.7,16.8c0.4,0.5,0.5,0.7,1.1,1.3v-18.1h4.6v29.9h-1.5l-19.5-22.1v21.8h-4.7
			L-118.7,712.7L-118.7,712.7z"/>
	</g>
	<g>
		<defs>
			<rect id="SVGID_23_" x="-493.4" y="654.2" width="417.7" height="125.6"/>
		</defs>
		<clipPath id="SVGID_24_">
			<use xlink:href="#SVGID_23_"  style="overflow:visible;"/>
		</clipPath>
		<polygon class="st11" points="-388.1,689.5 -388.1,704.4 -390.7,704.4 -390.7,689.5 -395.7,689.5 -395.7,687.6 -383,687.6 
			-383,689.5 		"/>
	</g>
	<g>
		<defs>
			<rect id="SVGID_25_" x="-493.4" y="654.2" width="417.7" height="125.6"/>
		</defs>
		<clipPath id="SVGID_26_">
			<use xlink:href="#SVGID_25_"  style="overflow:visible;"/>
		</clipPath>
		<polygon class="st12" points="-371.4,704.4 -371.4,696.5 -378.6,696.5 -378.6,704.4 -381.2,704.4 -381.2,687.6 -378.6,687.6 
			-378.6,694.6 -371.4,694.6 -371.4,687.6 -368.8,687.6 -368.8,704.4 		"/>
	</g>
	<g>
		<defs>
			<rect id="SVGID_27_" x="-493.4" y="654.2" width="417.7" height="125.6"/>
		</defs>
		<clipPath id="SVGID_28_">
			<use xlink:href="#SVGID_27_"  style="overflow:visible;"/>
		</clipPath>
		<polygon class="st13" points="-365.1,704.4 -365.1,687.6 -355.1,687.6 -355.1,689.5 -362.5,689.5 -362.5,694.6 -355.3,694.6 
			-355.3,696.5 -362.5,696.5 -362.5,702.5 -355,702.5 -355,704.4 		"/>
	</g>
	<g>
		<defs>
			<rect id="SVGID_29_" x="-493.4" y="654.2" width="417.7" height="125.6"/>
		</defs>
		<clipPath id="SVGID_30_">
			<use xlink:href="#SVGID_29_"  style="overflow:visible;"/>
		</clipPath>
		<path class="st14" d="M-334.4,703.1c-1.1,1-2.8,1.6-4.9,1.6c-2.3,0-4.3-0.9-5.2-2.2c-0.7-1.1-0.8-1.9-0.8-5v-9.9h2.6v10.8
			c0,2.7,0.9,4.2,3.8,4.2c1.7,0,2.9-0.6,3.4-1.6c0.3-0.6,0.4-1.5,0.4-3.1v-10.3h2.2v9.9C-333,701-333.2,702-334.4,703.1"/>
	</g>
	<g>
		<defs>
			<rect id="SVGID_31_" x="-493.4" y="654.2" width="417.7" height="125.6"/>
		</defs>
		<clipPath id="SVGID_32_">
			<use xlink:href="#SVGID_31_"  style="overflow:visible;"/>
		</clipPath>
		<polygon class="st15" points="-320.5,704.4 -327.4,690.2 -327.3,704.4 -329.5,704.4 -329.5,687.6 -325.9,687.6 -319.1,701.9 
			-319.2,687.6 -317,687.6 -317,704.4 		"/>
	</g>
	<g>
		<defs>
			<rect id="SVGID_33_" x="-493.4" y="654.2" width="417.7" height="125.6"/>
		</defs>
		<clipPath id="SVGID_34_">
			<use xlink:href="#SVGID_33_"  style="overflow:visible;"/>
		</clipPath>
		<rect x="-313.3" y="687.6" class="st16" width="2.6" height="16.8"/>
	</g>
	<g>
		<defs>
			<rect id="SVGID_35_" x="-493.4" y="654.2" width="417.7" height="125.6"/>
		</defs>
		<clipPath id="SVGID_36_">
			<use xlink:href="#SVGID_35_"  style="overflow:visible;"/>
		</clipPath>
		<polygon class="st17" points="-300.3,704.4 -303.2,704.4 -309,687.6 -306.2,687.6 -301.6,702.1 -297,687.6 -294.6,687.6 		"/>
	</g>
	<g>
		<defs>
			<rect id="SVGID_37_" x="-493.4" y="654.2" width="417.7" height="125.6"/>
		</defs>
		<clipPath id="SVGID_38_">
			<use xlink:href="#SVGID_37_"  style="overflow:visible;"/>
		</clipPath>
		<polygon class="st18" points="-292.8,704.4 -292.8,687.6 -282.7,687.6 -282.7,689.5 -290.2,689.5 -290.2,694.6 -283,694.6 
			-283,696.5 -290.2,696.5 -290.2,702.5 -282.7,702.5 -282.7,704.4 		"/>
	</g>
	<g>
		<defs>
			<rect id="SVGID_39_" x="-493.4" y="654.2" width="417.7" height="125.6"/>
		</defs>
		<clipPath id="SVGID_40_">
			<use xlink:href="#SVGID_39_"  style="overflow:visible;"/>
		</clipPath>
		<path class="st19" d="M-269.7,704.4l-1.4-3.9c-0.6-1.6-1-3-2.7-3.2c-0.5-0.1-1.2-0.1-2.3-0.1h-0.5v7.2h-2.6v-16.8h4.7
			c2.3,0,3.2,0.2,4.1,0.7c1.2,0.7,1.9,2,1.9,3.7c0,2.4-1.1,3.8-3.5,4.3c1.7,0.4,2.4,1.2,3.5,4.3l1.4,3.8
			C-267,704.4-269.7,704.4-269.7,704.4z M-272,689.9c-0.5-0.3-1.2-0.4-2.7-0.4h-1.8v5.8h0.9c2.4,0,4.6-0.1,4.6-2.9
			C-271,691.2-271.3,690.3-272,689.9"/>
	</g>
	<g>
		<defs>
			<rect id="SVGID_41_" x="-493.4" y="654.2" width="417.7" height="125.6"/>
		</defs>
		<clipPath id="SVGID_42_">
			<use xlink:href="#SVGID_41_"  style="overflow:visible;"/>
		</clipPath>
		<path class="st20" d="M-260.3,704.6c-1.6,0-3-0.3-4.9-0.8l0.5-1.9c1.6,0.4,3,0.6,4.2,0.6c1.9,0,3.6-1,3.6-2.7
			c0-1.2-0.4-1.7-1.9-2.3c-2.9-1.1-6.2-1.5-6.2-5.3c0-3,2.1-4.8,5.3-4.8c1.3,0,2.8,0.2,4.6,0.7l-0.4,1.8c-1.2-0.2-2.8-0.5-3.9-0.5
			c-1.6,0-3,0.8-3,2.5c0,1.4,0.5,1.8,3.1,2.6c3.5,1,4.9,2,4.9,4.9C-254.3,702.6-256.6,704.6-260.3,704.6"/>
	</g>
	<g>
		<defs>
			<rect id="SVGID_43_" x="-493.4" y="654.2" width="417.7" height="125.6"/>
		</defs>
		<clipPath id="SVGID_44_">
			<use xlink:href="#SVGID_43_"  style="overflow:visible;"/>
		</clipPath>
		<rect x="-251.8" y="687.6" class="st21" width="2.6" height="16.8"/>
	</g>
	<g>
		<defs>
			<rect id="SVGID_45_" x="-493.4" y="654.2" width="417.7" height="125.6"/>
		</defs>
		<clipPath id="SVGID_46_">
			<use xlink:href="#SVGID_45_"  style="overflow:visible;"/>
		</clipPath>
		<polygon class="st22" points="-239.7,689.5 -239.7,704.4 -242.3,704.4 -242.3,689.5 -247.4,689.5 -247.4,687.6 -234.7,687.6 
			-234.7,689.5 		"/>
	</g>
	<g>
		<polygon class="st23" points="-226.5,697 -226.5,704.4 -229,704.4 -229,697 -234.7,687.6 -231.6,687.6 -227.5,695 -223.4,687.6 
			-220.9,687.6 		"/>
	</g>
	<g>
		<path class="st23" d="M-206.6,704.7c-4.6,0-7-3-7-8.7c0-5.6,2.5-8.7,7.1-8.7c4.5,0,7,3.1,7,8.7
			C-199.5,701.6-202,704.7-206.6,704.7 M-206.5,689.4c-2.9,0-4.4,2.2-4.4,6.6c0,2.2,0.4,4.2,1.1,5.2c0.6,1,1.8,1.5,3.2,1.5
			c2.9,0,4.3-2.1,4.3-6.6C-202.2,691.5-203.6,689.4-206.5,689.4"/>
	</g>
</g>
<g>
	<g>
		<polygon class="st23" points="-194,689.5 -194,694.6 -187,694.6 -187,696.5 -194,696.5 -194,704.4 -196.6,704.4 -196.6,687.6 
			-186.8,687.6 -186.8,689.5 		"/>
	</g>
</g>
<g>
	<g>
		<defs>
			<rect id="SVGID_47_" x="-490.5" y="660.7" width="397.6" height="94"/>
		</defs>
		<clipPath id="SVGID_48_">
			<use xlink:href="#SVGID_47_"  style="overflow:visible;"/>
		</clipPath>
		<path class="st24" d="M-435.3,664.8l0,33.6c0,2.2-1.3,4.2-3.4,5c-2.1,0.8-4.4,0.2-5.9-1.5c0,0-6.3-7.3-6.9-8
			c-1.8-1.8-3.3-2.8-6.8-2.8c-4.3,0-9.5,3.7-9.5,9.6v13.1c0,3-2.4,5.4-5.3,5.4h-11.7c3.4,8.6,8.7,17.6,16.9,26c0,0,19.1,19,32.4,3.2
			c0,0,17.3-13.4,32.6-72.7C-402.8,675.7-417.7,669.3-435.3,664.8 M-420.4,699.5c-0.3,4.1-0.9,13.6-12.5,18.3
			c-8.5,3.5-15.8,0.4-20-2.9v12.8c0,3-2.4,5.4-5.3,5.4c-2.9,0-5.3-2.4-5.3-5.4v-26.4c0-2.2,1.4-4.2,3.4-5c2.1-0.8,4.4-0.2,5.8,1.5
			c0,0,6.8,7.8,7,8c0.6,0.6,4.7,4.5,10.4,2.1c5.4-2.2,5.7-5.4,5.9-9v-9.1c0-3,2.4-5.4,5.3-5.4c2.9,0,5.3,2.4,5.3,5.4v9.3
			C-420.4,699.3-420.4,699.4-420.4,699.5"/>
	</g>
	<g>
		<defs>
			<rect id="SVGID_49_" x="-490.5" y="660.7" width="397.6" height="94"/>
		</defs>
		<clipPath id="SVGID_50_">
			<use xlink:href="#SVGID_49_"  style="overflow:visible;"/>
		</clipPath>
		<path class="st25" d="M-478.3,708.4v-7.7l0,0.1c-0.1-4.3,1.7-12.6,8.7-16.9c4.2-3,14.1-6.3,23.7,0.8c0-22.1,0-22.1,0-22.2
			c-8.6-1.6-17.2-2.3-24.6-1.4c0,0-16.4,0.9-19.6,19.9c0,0-1.8,11.9,2,27.5H-478.3z"/>
	</g>
</g>
</svg>
